<svg version="1.1" id="Layer_1" xmlns="http://www.w3.org/2000/svg" xmlns:xlink="http://www.w3.org/1999/xlink" x="0px" y="0px"
	 width="100%" viewBox="0 0 100 100" enable-background="new 0 0 100 100" xml:space="preserve">
<path fill="#FEFEFE" opacity="1.000000" stroke="none" 
	d="
M57.000000,101.000000 
	C38.000004,101.000000 19.500006,101.000000 1.000007,101.000000 
	C1.000005,67.666679 1.000005,34.333351 1.000003,1.000021 
	C34.333317,1.000014 67.666634,1.000014 100.999969,1.000007 
	C100.999977,34.333313 100.999977,67.666626 100.999985,100.999969 
	C86.500000,101.000000 72.000000,101.000000 57.000000,101.000000 
M74.662697,77.533546 
	C77.148697,77.402138 79.634705,77.270729 82.120705,77.139320 
	C82.548294,76.408623 82.975876,75.677933 83.403458,74.947243 
	C78.827705,71.370262 74.251961,67.793282 69.676208,64.216309 
	C79.153625,62.811222 79.157745,62.811222 79.157288,54.555893 
	C79.156990,49.061478 79.191566,43.566460 79.123550,38.072788 
	C79.019958,29.704540 74.253204,24.668938 65.863068,24.526985 
	C54.877331,24.341116 43.882587,24.311926 32.898327,24.537312 
	C24.652550,24.706507 19.694393,29.872965 19.498737,38.165466 
	C19.333839,45.154430 19.333748,52.153450 19.498442,59.142418 
	C19.691774,67.346733 24.753258,72.352501 33.023525,72.693283 
	C36.514095,72.837112 40.030228,72.516884 43.508072,72.771637 
	C47.425869,73.058624 50.593075,72.352570 52.985828,68.831131 
	C55.107880,65.708069 57.743427,65.632881 60.394077,68.541039 
	C62.298515,70.630501 64.135017,72.916855 66.437416,74.469406 
	C68.593987,75.923615 71.323418,76.528259 74.662697,77.533546 
z"/>
<path fill="#080808" opacity="1.000000" stroke="none" 
	d="
M74.231720,77.520164 
	C71.323418,76.528259 68.593987,75.923615 66.437416,74.469406 
	C64.135017,72.916855 62.298515,70.630501 60.394077,68.541039 
	C57.743427,65.632881 55.107880,65.708069 52.985828,68.831131 
	C50.593075,72.352570 47.425869,73.058624 43.508072,72.771637 
	C40.030228,72.516884 36.514095,72.837112 33.023525,72.693283 
	C24.753258,72.352501 19.691774,67.346733 19.498442,59.142418 
	C19.333748,52.153450 19.333839,45.154430 19.498737,38.165466 
	C19.694393,29.872965 24.652550,24.706507 32.898327,24.537312 
	C43.882587,24.311926 54.877331,24.341116 65.863068,24.526985 
	C74.253204,24.668938 79.019958,29.704540 79.123550,38.072788 
	C79.191566,43.566460 79.156990,49.061478 79.157288,54.555893 
	C79.157745,62.811222 79.153625,62.811222 69.676208,64.216309 
	C74.251961,67.793282 78.827705,71.370262 83.403458,74.947243 
	C82.975876,75.677933 82.548294,76.408623 82.120705,77.139320 
	C79.634705,77.270729 77.148697,77.402138 74.231720,77.520164 
M65.075935,34.140144 
	C54.779301,34.142441 44.482567,34.170288 34.186089,34.131271 
	C31.146677,34.119755 28.943552,34.846569 28.968700,38.492195 
	C29.015673,45.300892 28.763079,52.123222 29.164970,58.908497 
	C29.248917,60.325813 31.599899,62.739834 32.954601,62.774002 
	C45.020546,63.078339 57.097374,62.951168 69.580849,62.951168 
	C69.580849,54.386177 69.748367,46.282909 69.420006,38.199787 
	C69.363663,36.812756 67.193977,35.511570 65.075935,34.140144 
z"/>
<path fill="#FAFAFA" opacity="1.000000" stroke="none" 
	d="
M65.538239,34.155437 
	C67.193977,35.511570 69.363663,36.812756 69.420006,38.199787 
	C69.748367,46.282909 69.580849,54.386177 69.580849,62.951168 
	C57.097374,62.951168 45.020546,63.078339 32.954601,62.774002 
	C31.599899,62.739834 29.248917,60.325813 29.164970,58.908497 
	C28.763079,52.123222 29.015673,45.300892 28.968700,38.492195 
	C28.943552,34.846569 31.146677,34.119755 34.186089,34.131271 
	C44.482567,34.170288 54.779301,34.142441 65.538239,34.155437 
z"/>
</svg>