<svg version="1.1" id="Layer_1" xmlns="http://www.w3.org/2000/svg" xmlns:xlink="http://www.w3.org/1999/xlink" x="0px" y="0px"
	 width="100%" viewBox="0 0 100 100" enable-background="new 0 0 100 100" xml:space="preserve">
<path fill="#3984BD" opacity="1.000000" stroke="none" 
	d="
M57.000000,101.000000 
	C38.000004,101.000000 19.500006,101.000000 1.000007,101.000000 
	C1.000005,67.666679 1.000005,34.333351 1.000003,1.000021 
	C34.333317,1.000014 67.666634,1.000014 100.999969,1.000007 
	C100.999977,34.333313 100.999977,67.666626 100.999985,100.999969 
	C86.500000,101.000000 72.000000,101.000000 57.000000,101.000000 
M62.484905,47.854443 
	C61.935856,52.480988 61.764885,57.192825 60.745136,61.713188 
	C59.371147,67.803818 53.453823,71.474655 47.498493,70.570885 
	C41.720921,69.694092 38.982338,65.987564 39.067467,58.988541 
	C39.091698,56.996059 39.369724,55.006176 39.542583,53.016075 
	C40.402912,43.111214 41.266983,33.206680 42.153461,23.029669 
	C38.184532,23.029669 34.780903,23.029669 30.574625,23.029669 
	C29.705267,36.693340 28.396631,50.106323 28.165314,63.537865 
	C28.022968,71.803154 34.291298,78.808327 41.709026,80.874641 
	C54.920761,84.554962 68.966164,77.304993 71.591057,63.861401 
	C74.188255,50.559620 74.782845,36.866825 76.294083,22.994823 
	C72.139565,22.994823 68.724670,22.994823 64.747414,22.994823 
	C64.020096,31.106037 63.310017,39.025009 62.484905,47.854443 
z"/>
<path fill="#F5FBFD" opacity="1.000000" stroke="none" 
	d="
M62.542419,47.399208 
	C63.310017,39.025009 64.020096,31.106037 64.747414,22.994823 
	C68.724670,22.994823 72.139565,22.994823 76.294083,22.994823 
	C74.782845,36.866825 74.188255,50.559620 71.591057,63.861401 
	C68.966164,77.304993 54.920761,84.554962 41.709026,80.874641 
	C34.291298,78.808327 28.022968,71.803154 28.165314,63.537865 
	C28.396631,50.106323 29.705267,36.693340 30.574625,23.029669 
	C34.780903,23.029669 38.184532,23.029669 42.153461,23.029669 
	C41.266983,33.206680 40.402912,43.111214 39.542583,53.016075 
	C39.369724,55.006176 39.091698,56.996059 39.067467,58.988541 
	C38.982338,65.987564 41.720921,69.694092 47.498493,70.570885 
	C53.453823,71.474655 59.371147,67.803818 60.745136,61.713188 
	C61.764885,57.192825 61.935856,52.480988 62.542419,47.399208 
z"/>
</svg>