<svg width="64" height="64" viewBox="0 0 64 64" fill="none" xmlns="http://www.w3.org/2000/svg">
  <path d="M32 4C16.536 4 4 16.536 4 32C4 47.464 16.536 60 32 60C47.464 60 60 47.464 60 32C60 16.536 47.464 4 32 4ZM32 12C36.418 12 40 15.582 40 20C40 24.418 36.418 28 32 28C27.582 28 24 24.418 24 20C24 15.582 27.582 12 32 12ZM32 52C25.373 52 19.543 48.628 16.328 43.346C16.434 37.673 26.667 34.5 32 34.5C37.294 34.5 47.566 37.673 47.672 43.346C44.457 48.628 38.627 52 32 52Z" fill="currentColor"/>
</svg>
